# xmcd
#
# Track frame offsets: 
#        150
#        16275
#        30465
#        46590
#
# Disc length: 809 seconds
#
# Revision: 0
# Processed by: cddbd v1.5.2PL0 Copyright (c) Steve Scherf et al.
# Submitted via: ExactAudioCopyFreeDBPlugin 1.0
#
DISCID=1f032704
DTITLE=小野賢章 / 『黒子のバスケ』OP:ZERO
DYEAR=2015
DGENRE=Anime
TTITLE0=ZERO
TTITLE1=Mr.Trickstarr
TTITLE2=ZERO (OFF VOCAL)
TTITLE3=Mr.Trickstarr (OFF VOCAL)
EXTD=
EXTT0=
EXTT1=
EXTT2=
EXTT3=
PLAYORDER=
